<svg xmlns="http://www.w3.org/2000/svg" viewBox="0 0 252.06 94.97"><defs><style>.cls-1{fill:#20feb0;}</style></defs><g id="Calque_2" data-name="Calque 2"><g id="Calque_7" data-name="Calque 7"><path class="cls-1" d="M199.67,6.24H247.9c3.67,0,3.67,0,3.71-3.67,0-2.3-.17-2.49-2.47-2.49H166.5c-1.83,0-3.66,0-5.49-.07a3.9,3.9,0,0,0-3.11,1.1c-2.66,2.56-5.36,5.09-8,7.67a4.2,4.2,0,0,1-3.38,1.39c-2.23-.1-4.48.07-6.72-.05a3.93,3.93,0,0,1-2.28-.91c-2.64-2.38-5.2-4.87-7.74-7.35A4.1,4.1,0,0,0,126.63.58c-5.72.07-11.44.05-17.16,0L66.1.6a9.72,9.72,0,0,0-1.5.23V1.3a15,15,0,0,0,1.76.2q21.69,0,43.38,0a3.18,3.18,0,0,1,1.94.76c2.9,2.63,5.71,5.37,8.62,8a3.47,3.47,0,0,0,2,.85q12.63.09,25.25,0a3.35,3.35,0,0,0,2-.84c2.35-2.14,4.7-4.29,6.87-6.6a7.48,7.48,0,0,1,6-2.45q43,.14,85.93.05c2.37,0,2.46.09,2.39,2.49a2.44,2.44,0,0,0,0,.27c0,.9-.38,1.38-1.3,1.37h-1.24q-23.53,0-47.08,0c-1.12,0-2.2.18-1.36-1.88L197.79,5l-1.86-1.24-.36.09c1.12,1.35,1.38,2.7.09,4.21,1.39-1.39,2.67-1.11,4,0ZM0,.85v.4a7.45,7.45,0,0,0,1.38.26c7.1,0,14.19,0,21.28,0a3.58,3.58,0,0,1,2.21.75c2.69,2.4,5.27,4.92,7.9,7.38a3.93,3.93,0,0,0,2.78,1.52q22.5,0,45,0A6,6,0,0,0,82,10.84l0-.51a15.13,15.13,0,0,0-1.78-.19c-9.06,0-18.11,0-27.17,0a3.47,3.47,0,0,1-2.17-.86c-2.67-2.42-5.24-4.95-7.85-7.43A3.79,3.79,0,0,0,40.18.57c-12.9.05-25.8,0-38.7,0A9.53,9.53,0,0,0,0,.85ZM60.11,4.09a26.09,26.09,0,0,1-2.57.57c-.32,0-.67-.23-1-.35L57,5.42c.07.15.17.29.23.41L56,7.65l.14.37c1.29-1,2.57-1.45,4,0C58.8,6.56,59.29,5.29,60.11,4.09Z"/><path class="cls-1" d="M199.67,6.24V8c-1.34-1.07-2.62-1.35-4,0,1.29-1.51,1-2.86-.09-4.21l.36-.09L197.79,5l2.05-1.41c-.84,2.06.24,1.88,1.36,1.88q23.53,0,47.08,0h1.24c.92,0,1.33-.47,1.3-1.37a2.44,2.44,0,0,1,0-.27c.07-2.4,0-2.49-2.39-2.49q-43,0-85.93-.05a7.48,7.48,0,0,0-6,2.45c-2.17,2.31-4.52,4.46-6.87,6.6a3.35,3.35,0,0,1-2,.84q-12.61.07-25.25,0a3.47,3.47,0,0,1-2-.85c-2.91-2.63-5.72-5.37-8.62-8a3.18,3.18,0,0,0-1.94-.76q-21.69,0-43.38,0a15,15,0,0,1-1.76-.2V.83A9.72,9.72,0,0,1,66.1.6l43.37,0c5.72,0,11.44,0,17.16,0a4.1,4.1,0,0,1,3.15,1.28c2.54,2.48,5.1,5,7.74,7.35a3.93,3.93,0,0,0,2.28.91c2.24.12,4.49,0,6.72.05a4.2,4.2,0,0,0,3.38-1.39c2.64-2.58,5.34-5.11,8-7.67A3.9,3.9,0,0,1,161,0c1.83.11,3.66.07,5.49.07h82.64c2.3,0,2.49.19,2.47,2.49,0,3.68,0,3.67-3.71,3.67H199.67Z"/><path class="cls-1" d="M0,.85A9.53,9.53,0,0,1,1.48.6c12.9,0,25.8,0,38.7,0a3.79,3.79,0,0,1,2.76,1.25c2.61,2.48,5.18,5,7.85,7.43a3.47,3.47,0,0,0,2.17.86c9.06.05,18.11,0,27.17,0a15.13,15.13,0,0,1,1.78.19l0,.51a6,6,0,0,1-1.39.33q-22.51,0-45,0a3.93,3.93,0,0,1-2.78-1.52c-2.63-2.46-5.21-5-7.9-7.38a3.58,3.58,0,0,0-2.21-.75c-7.09-.05-14.18,0-21.28,0A7.45,7.45,0,0,1,0,1.25Z"/><path class="cls-1" d="M60.11,4.09c-.82,1.2-1.31,2.47.09,3.88-1.45-1.4-2.73-.91-4,0L56,7.65,57.2,5.83c-.06-.12-.16-.26-.23-.41l-.44-1.11c.34.12.69.39,1,.35A26.09,26.09,0,0,0,60.11,4.09Z"/><path class="cls-1" d="M105.37,76.48v.72a13.56,13.56,0,0,0,2.47.46c12.7,0,25.39,0,38.08,0a6.49,6.49,0,0,1,4,1.35c4.81,4.3,9.43,8.8,14.13,13.22,1.42,1.32,2.66,2.71,5,2.71,26.86,0,53.72,0,80.58,0a11.22,11.22,0,0,0,2.49-.58l-.08-.92a28.6,28.6,0,0,0-3.18-.34c-16.22,0-32.43,0-48.65,0a6.41,6.41,0,0,1-3.88-1.53c-4.77-4.34-9.37-8.86-14.05-13.31A6.75,6.75,0,0,0,177.29,76c-23.09.08-46.18,0-69.28.06A16.16,16.16,0,0,0,105.37,76.48Z"/><path class="cls-1" d="M105.37,76.48A16.16,16.16,0,0,1,108,76c23.1,0,46.19,0,69.28-.06a6.75,6.75,0,0,1,4.93,2.24c4.68,4.45,9.28,9,14.05,13.31a6.41,6.41,0,0,0,3.88,1.53c16.22.09,32.43,0,48.65,0a28.6,28.6,0,0,1,3.18.34l.08.92a11.22,11.22,0,0,1-2.49.58c-26.86,0-53.72,0-80.58,0-2.31,0-3.55-1.39-5-2.71-4.7-4.42-9.32-8.92-14.13-13.22a6.49,6.49,0,0,0-4-1.35c-12.69-.08-25.38,0-38.08,0a13.56,13.56,0,0,1-2.47-.46Z"/><path class="cls-1" d="M.21,39.76,2,36.28a.59.59,0,0,1,.56-.34.48.48,0,0,1,.4.15l.53.44c.43.37.83.7,1.2,1a7.42,7.42,0,0,0,1.11.71A5,5,0,0,0,7,38.67a6.64,6.64,0,0,0,1.49.15,3.84,3.84,0,0,0,1.35-.24A4.3,4.3,0,0,0,11,37.92a3,3,0,0,0,.76-1A2.59,2.59,0,0,0,12,35.81a1.19,1.19,0,0,0-.38-.86,4.48,4.48,0,0,0-.92-.73,6.7,6.7,0,0,0-1.1-.56c-.38-.16-.69-.28-.92-.36l-4-2a6.78,6.78,0,0,1-2.33-2.17,5.48,5.48,0,0,1-.84-3,6.85,6.85,0,0,1,.58-2.87A6.52,6.52,0,0,1,3.67,21,7.29,7.29,0,0,1,6,19.54,7.86,7.86,0,0,1,8.9,19a11.3,11.3,0,0,1,3.41.53,8.07,8.07,0,0,1,3,1.71l.44.37a.54.54,0,0,1,.15.74l-1.8,3.45a.55.55,0,0,1-.55.34.58.58,0,0,1-.41-.15l-.9-.84a6.34,6.34,0,0,0-.77-.62,3.16,3.16,0,0,0-.78-.39,4.59,4.59,0,0,0-.85-.2,8,8,0,0,0-1-.06,2.31,2.31,0,0,0-1.62.59A1.93,1.93,0,0,0,6.54,26a1,1,0,0,0,.11.46,1.62,1.62,0,0,0,.45.5,4.13,4.13,0,0,0,1,.6l1.15.55,4.5,2.2a7.25,7.25,0,0,1,2.48,2.33,6,6,0,0,1,.87,3.29A6.74,6.74,0,0,1,16.33,39a7.72,7.72,0,0,1-1.94,2.45,8.8,8.8,0,0,1-2.76,1.6,9.1,9.1,0,0,1-3.16.58,10.72,10.72,0,0,1-4.26-.83A16.33,16.33,0,0,1,.49,40.62l-.12-.09a.78.78,0,0,1-.22-.37A.47.47,0,0,1,.21,39.76Z"/><path class="cls-1" d="M18.21,42.21l9-22.19a.57.57,0,0,1,.56-.38h2.27a.59.59,0,0,1,.59.38l9,22.19a.61.61,0,0,1-.07.6.59.59,0,0,1-.52.27H35.19a.56.56,0,0,1-.56-.41l-1.55-3.78a.59.59,0,0,0-.59-.41l-7.17.1a.55.55,0,0,0-.56.37l-1.52,3.72a.58.58,0,0,1-.59.41H18.8a.61.61,0,0,1-.53-.27A.63.63,0,0,1,18.21,42.21Zm9.59-8.48,2.27,0a.56.56,0,0,0,.51-.28.64.64,0,0,0,.05-.59l-1.12-2.76a.53.53,0,0,0-.23-.28.8.8,0,0,0-.36-.09.55.55,0,0,0-.56.37l-1.15,2.8a.63.63,0,0,0,.06.6A.6.6,0,0,0,27.8,33.73Z"/><path class="cls-1" d="M41.86,42.46V20.26a.57.57,0,0,1,.19-.43.64.64,0,0,1,.46-.19h3.54a.65.65,0,0,1,.53.25l5.68,8.26a.63.63,0,0,0,1.05,0L59,19.89a.65.65,0,0,1,.53-.25h3.54a.64.64,0,0,1,.46.19.57.57,0,0,1,.19.43v22.2a.57.57,0,0,1-.19.43.64.64,0,0,1-.46.19h-3.6a.63.63,0,0,1-.44-.19.6.6,0,0,1-.18-.43V32a.6.6,0,0,0-.2-.46.72.72,0,0,0-.45-.17.6.6,0,0,0-.5.25l-4.41,5.9a.53.53,0,0,1-.49.25.53.53,0,0,1-.5-.25l-4.41-5.9a.6.6,0,0,0-.49-.25.64.64,0,0,0-.44.17.66.66,0,0,0-.19.49V42.46a.55.55,0,0,1-.2.43.65.65,0,0,1-.45.19h-3.6a.64.64,0,0,1-.46-.19A.57.57,0,0,1,41.86,42.46Z"/><path class="cls-1" d="M67.53,42.46V20.26a.6.6,0,0,1,.18-.43.63.63,0,0,1,.44-.19h45.37a.63.63,0,0,1,.44.19.6.6,0,0,1,.18.43V23.8a.61.61,0,0,1-.62.62H73a.61.61,0,0,0-.43.19.57.57,0,0,0-.19.43v3.88a.59.59,0,0,0,.19.44.6.6,0,0,0,.43.18h37.15a.63.63,0,0,1,.44.19.61.61,0,0,1,.18.43V33.7a.66.66,0,0,1-.18.47.63.63,0,0,1-.44.19H73a.6.6,0,0,0-.43.18.59.59,0,0,0-.19.44v2.67a.57.57,0,0,0,.19.43.61.61,0,0,0,.43.19h40.5a.57.57,0,0,1,.44.2.64.64,0,0,1,.18.45v3.54a.6.6,0,0,1-.18.43.63.63,0,0,1-.44.19H68.15a.63.63,0,0,1-.44-.19A.6.6,0,0,1,67.53,42.46Z"/><path class="cls-1" d="M117.37,42.46V20.23a.65.65,0,0,1,.62-.62h8a16.2,16.2,0,0,1,4.62.61,10.12,10.12,0,0,1,4,2.37,11.8,11.8,0,0,1,2.76,4,12.56,12.56,0,0,1,0,9.51,11.25,11.25,0,0,1-2.69,3.88,12.17,12.17,0,0,1-2,1.51,10.55,10.55,0,0,1-2.08,1,11.53,11.53,0,0,1-2.25.51,19.27,19.27,0,0,1-2.45.16h-8a.61.61,0,0,1-.43-.19A.57.57,0,0,1,117.37,42.46ZM122.25,25V37.65a.6.6,0,0,0,.18.43.63.63,0,0,0,.44.19H126a9.55,9.55,0,0,0,3-.41,6.1,6.1,0,0,0,2.22-1.3l0,0,0,0,.06-.06a7.43,7.43,0,0,0,2.14-4.91,8.49,8.49,0,0,0-.4-2.61,6.68,6.68,0,0,0-1.37-2.29l0,0c0-.05,0-.07-.06-.07l0-.06,0,0-.56-.5-.1-.09v0s0,0,0,0h-.05v0a.35.35,0,0,1-.12-.1l-.07,0-.06-.06h0s-.07-.06-.09-.06l-.16-.09a.35.35,0,0,1-.12-.1h0a.18.18,0,0,0-.1-.06l0,0a8.12,8.12,0,0,0-2.73-.78h-.06a2.31,2.31,0,0,0-.37,0h-.68l-.16,0h-3.1a.6.6,0,0,0-.44.2A.68.68,0,0,0,122.25,25Z"/><path class="cls-1" d="M140.62,42.46V20.26a.57.57,0,0,1,.19-.43.59.59,0,0,1,.43-.19h3.63a.63.63,0,0,1,.44.19.6.6,0,0,1,.18.43v22.2a.6.6,0,0,1-.18.43.63.63,0,0,1-.44.19h-3.63a.59.59,0,0,1-.43-.19A.57.57,0,0,1,140.62,42.46Z"/><path class="cls-1" d="M162.22,24.1c-.08.21-.18.42-.29.64s-.23.44-.33.64a5.15,5.15,0,0,0-.24.51l.51.31.21-.54.27-.72a4.06,4.06,0,0,1,.31-.66,2.85,2.85,0,0,1,.29-.41l3.42-2.76.12.2L162,28.06l-3.3-.66.16-9c.75-.49,1.44-.91,2.08-1.26a12.51,12.51,0,0,1,1.88-.86,10.59,10.59,0,0,1,1.88-.48,11.89,11.89,0,0,1,2-.16,9.09,9.09,0,0,1,2.62.39,11.59,11.59,0,0,1,2.42,1,10.57,10.57,0,0,1,2,1.51,8,8,0,0,1,1.46,1.85v4.5l-14.4,16.5.27.5A10.1,10.1,0,0,1,163.71,40a7.74,7.74,0,0,1,2.45-.72,16.3,16.3,0,0,1,2.64-.1c.91,0,1.93.05,3,0A2.31,2.31,0,0,0,173,39a3.41,3.41,0,0,0,.74-.56,2.4,2.4,0,0,0,.44-.68,3,3,0,0,0,.2-.6V33.46h.38v9.86H157.87l0-4.08h0l13.62-16.07v-4a3.94,3.94,0,0,0-1.76-2,6,6,0,0,0-3-.75,3.15,3.15,0,0,0-2.15.77,5.75,5.75,0,0,0-1.4,1.89,8.07,8.07,0,0,0-.7,2.36,10.11,10.11,0,0,0-.1,2.2A1.62,1.62,0,0,1,162.22,24.1Z"/><path class="cls-1" d="M184.75,43.2a7.29,7.29,0,0,1-3-1.69,9,9,0,0,1-2.19-3.34,14.68,14.68,0,0,1-.86-5.45,33.59,33.59,0,0,1,.2-3.49,17.35,17.35,0,0,1,.81-3.71A14.15,14.15,0,0,1,181.51,22a11.37,11.37,0,0,1,3.1-3,16.25,16.25,0,0,1,4.82-2.08,26.45,26.45,0,0,1,6.87-.77l1.32,3.1-7.14,6.6-.16-.16,2.44-3.14c.47-.59.94-1.24,1.42-1.94a6.44,6.44,0,0,1,1.61-1.67l-.31-.46-3.8,1.08a16.56,16.56,0,0,0-3.94,1.67,10.51,10.51,0,0,0-3.13,2.85,8.37,8.37,0,0,0-1.39,4.68,19.51,19.51,0,0,1,4.52-.1,11.79,11.79,0,0,1,4.11,1.13,7.71,7.71,0,0,1,3,2.58A7.42,7.42,0,0,1,196,36.64a6.82,6.82,0,0,1-.51,2.58A6.47,6.47,0,0,1,194,41.47a7.72,7.72,0,0,1-2.52,1.6,9.47,9.47,0,0,1-3.5.6A11.81,11.81,0,0,1,184.75,43.2ZM183.16,32c0,.74.05,1.54.11,2.41s.19,1.75.35,2.64a12,12,0,0,0,.72,2.44,5.43,5.43,0,0,0,1.19,1.81,2.43,2.43,0,0,0,1.76.7,3.73,3.73,0,0,0,1.75-.41,4.26,4.26,0,0,0,1.34-1.09,4.77,4.77,0,0,0,.85-1.55,5.47,5.47,0,0,0,.29-1.8A5.62,5.62,0,0,0,191,34.8a6.78,6.78,0,0,0-1.59-2.16,8.52,8.52,0,0,0-2.62-1.59,11.86,11.86,0,0,0-3.63-.74C183.14,30.7,183.14,31.26,183.16,32Z"/><path class="cls-1" d="M203.79,39.13l1.75,4.19h-4.35l1.74-4.19Z"/><path class="cls-1" d="M209.9,23.91a13.82,13.82,0,0,1,2.2-4.43,10,10,0,0,1,3.31-2.83,8.93,8.93,0,0,1,4.18-1,9.36,9.36,0,0,1,4.25,1,10.84,10.84,0,0,1,3.49,2.83,13.87,13.87,0,0,1,2.37,4.43,18,18,0,0,1,.87,5.74,17.85,17.85,0,0,1-.87,5.73,13.71,13.71,0,0,1-2.37,4.4,10.75,10.75,0,0,1-3.49,2.84,9.36,9.36,0,0,1-4.25,1,8.93,8.93,0,0,1-4.18-1,9.94,9.94,0,0,1-3.31-2.84,13.65,13.65,0,0,1-2.2-4.4,19.41,19.41,0,0,1-.79-5.73A19.57,19.57,0,0,1,209.9,23.91Zm5.2,14a12.25,12.25,0,0,0,2.57,3.11,6.16,6.16,0,0,0,2.85,1.41,4.47,4.47,0,0,0,2.91-.46,5.49,5.49,0,0,0,2.29-2.29A11.63,11.63,0,0,0,227,36a18.49,18.49,0,0,0,.16-4.7,25.31,25.31,0,0,0-1-5.2,20.88,20.88,0,0,0-2-4.66,12.86,12.86,0,0,0-2.58-3.14,6.24,6.24,0,0,0-2.87-1.44,4.41,4.41,0,0,0-2.9.47,5.82,5.82,0,0,0-2.31,2.33,11.35,11.35,0,0,0-1.26,3.75,18.57,18.57,0,0,0-.11,4.69,25.8,25.8,0,0,0,1,5.22A20.56,20.56,0,0,0,215.1,37.94Zm.49,3,7.49-22.43H224l-7.49,22.43Z"/><path class="cls-1" d="M238.53,24.1c-.08.21-.18.42-.29.64s-.23.44-.33.64a4.71,4.71,0,0,0-.23.51l.5.31.21-.54c.09-.24.18-.48.28-.72a3.37,3.37,0,0,1,.31-.66,1.83,1.83,0,0,1,.29-.41l3.41-2.76.12.2-4.46,6.75L235,27.4l.15-9c.75-.49,1.44-.91,2.08-1.26a12.51,12.51,0,0,1,1.88-.86,10.59,10.59,0,0,1,1.88-.48,12.05,12.05,0,0,1,2-.16,9.09,9.09,0,0,1,2.62.39,11.45,11.45,0,0,1,2.43,1,10.2,10.2,0,0,1,2,1.51,8,8,0,0,1,1.46,1.85v4.5l-14.4,16.5.27.5A10.28,10.28,0,0,1,240,40a7.74,7.74,0,0,1,2.45-.72,16.3,16.3,0,0,1,2.64-.1c.92,0,1.93.05,3,0A2.29,2.29,0,0,0,249.3,39a3.41,3.41,0,0,0,.74-.56,2.4,2.4,0,0,0,.44-.68,3,3,0,0,0,.2-.6V33.46h.39v9.86H234.18l0-4.08h0l13.63-16.07v-4a3.92,3.92,0,0,0-1.77-2,6,6,0,0,0-3-.75,3.15,3.15,0,0,0-2.15.77,5.9,5.9,0,0,0-1.4,1.89,8.07,8.07,0,0,0-.7,2.36,10,10,0,0,0-.09,2.2A1.41,1.41,0,0,1,238.53,24.1Z"/><path class="cls-1" d="M.6,51.64H2.54v4.09c0,.7,0,1.88,1.81,1.88s1.81-1.18,1.81-1.88V51.64H8.1v4.57C8.1,57,8,59,4.35,59S.6,57,.6,56.21Z"/><path class="cls-1" d="M11.34,53H8.69V51.64h7.24V53H13.28v5.77H11.34Z"/><path class="cls-1" d="M22.63,54.33a1.9,1.9,0,0,0-2-1.53,2.41,2.41,0,0,0,0,4.81,1.89,1.89,0,0,0,2-1.58h2.1C24.49,58.11,22.79,59,20.52,59c-2.6,0-4.22-1.12-4.22-3.77s1.62-3.76,4.22-3.76c1.72,0,3.91.44,4.19,2.89Z"/><path class="cls-1" d="M29.31,55.23h3.57v1.36H29.31Z"/><path class="cls-1" d="M37.88,51.64h5.36c1,0,2,.48,2,1.79a1.46,1.46,0,0,1-.94,1.43v0a1.67,1.67,0,0,1,1.26,1.73c0,1-.44,2.16-2.59,2.16H37.88Zm1.94,2.83h2.7a.67.67,0,0,0,.73-.77c0-.45-.2-.77-1-.77H39.82Zm0,2.94h2.86a.76.76,0,0,0,.83-.84c0-.56-.35-.86-1-.86H39.82Z"/><path class="cls-1" d="M53.27,57.17c-.51,1.27-1.73,1.8-3.34,1.8-2.12,0-3.54-.86-3.54-2.88s1.42-2.88,3.54-2.88c2.32,0,3.43,1.17,3.43,3.19v.16H48.21v0c0,.51.52,1.29,1.72,1.29a1.53,1.53,0,0,0,1.46-.7Zm-1.72-1.65v0c0-.29-.37-1.19-1.66-1.19a1.54,1.54,0,0,0-1.68,1.19v0Z"/><path class="cls-1" d="M58.72,55.73c0-.74-.39-1.1-1.18-1.1A1.38,1.38,0,0,0,56,56.18v2.59H54.27V53.41H56v.78h0a2.8,2.8,0,0,1,2.19-.92c.91,0,2.3.35,2.3,1.93v3.57H58.72Z"/><path class="cls-1" d="M61.68,53.41h1.76v5.32c0,1.28-.18,2-1.95,2-.34,0-.62,0-.9,0v-1.3l.45,0c.56,0,.64-.21.64-.87Zm0-1.89h1.76v1.24H61.68Z"/><path class="cls-1" d="M64.66,55.05c.21-1.65,1.73-1.84,3.17-1.84,2.52,0,3.06.82,3.06,1.82v2.66a2.6,2.6,0,0,0,.2,1.08H69.33a2.32,2.32,0,0,1-.12-.57A3.77,3.77,0,0,1,66.7,59c-1.4,0-2.38-.49-2.38-1.74s1.15-1.58,2.22-1.65l1.87-.13c.54,0,.72-.13.72-.56s-.36-.64-1.38-.64c-.75,0-1.14.06-1.39.8Zm4.53,1.11a2.91,2.91,0,0,1-1,.23l-1,.09c-.62.05-.93.22-.93.7s.45.75,1.11.75c.89,0,1.88-.43,1.88-1.33Z"/><path class="cls-1" d="M80.38,55.55c0-.72-.57-.92-1.08-.92A1.2,1.2,0,0,0,78,55.87v2.9H76.22V55.55c0-.72-.57-.92-1.06-.92a1.21,1.21,0,0,0-1.35,1.24v2.9H72.05V53.41h1.7v.78h0A2.8,2.8,0,0,1,76,53.27a1.8,1.8,0,0,1,1.85,1,2.64,2.64,0,0,1,2.2-1c1.08,0,2.13.46,2.13,1.87v3.63H80.38Z"/><path class="cls-1" d="M83.35,51.52h1.76v1.24H83.35Zm0,1.89h1.76v5.36H83.35Z"/><path class="cls-1" d="M90.76,55.73c0-.74-.39-1.1-1.18-1.1a1.38,1.38,0,0,0-1.51,1.55v2.59H86.31V53.41H88v.78h0a2.8,2.8,0,0,1,2.19-.92c.91,0,2.3.35,2.3,1.93v3.57H90.76Z"/><path class="cls-1" d="M97.5,51.64h6.38V53H99.44v1.55h4.16v1.36H99.44v2.86H97.5Z"/><path class="cls-1" d="M104.64,53.41h1.7v1.05h0a2.41,2.41,0,0,1,2.14-1.19,3.47,3.47,0,0,1,.64.06V55a3.58,3.58,0,0,0-1-.16c-1.2,0-1.77.61-1.77,1.65v2.31h-1.76Z"/><path class="cls-1" d="M109.85,55.05c.21-1.65,1.73-1.84,3.17-1.84,2.52,0,3,.82,3,1.82v2.66a2.77,2.77,0,0,0,.2,1.08h-1.75a2.32,2.32,0,0,1-.12-.57,3.77,3.77,0,0,1-2.51.77c-1.4,0-2.38-.49-2.38-1.74s1.15-1.58,2.22-1.65l1.87-.13c.54,0,.72-.13.72-.56s-.36-.64-1.38-.64c-.75,0-1.14.06-1.39.8Zm4.53,1.11a2.91,2.91,0,0,1-1,.23l-1,.09c-.62.05-.93.22-.93.7s.45.75,1.11.75c.89,0,1.88-.43,1.88-1.33Z"/><path class="cls-1" d="M121.69,55.73c0-.74-.39-1.1-1.18-1.1A1.38,1.38,0,0,0,119,56.18v2.59h-1.76V53.41h1.7v.78h0a2.8,2.8,0,0,1,2.19-.92c.91,0,2.3.35,2.3,1.93v3.57h-1.76Z"/><path class="cls-1" d="M124.65,51.52h1.76v3.89l2.33-2h2.45l-2.55,2,2.7,3.32H129l-1.75-2.23-.86.69v1.54h-1.76Z"/><path class="cls-1" d="M131.87,51.52h1.76v7.25h-1.76Z"/><path class="cls-1" d="M134.83,51.52h1.76v1.24h-1.76Zm0,1.89h1.76v5.36h-1.76Z"/><path class="cls-1" d="M142.24,55.73c0-.74-.39-1.1-1.18-1.1a1.38,1.38,0,0,0-1.51,1.55v2.59h-1.76V53.41h1.7v.78h0a2.8,2.8,0,0,1,2.19-.92c.91,0,2.29.35,2.29,1.93v3.57h-1.75Z"/><path class="cls-1" d="M.78,60.64H4.67c1.21,0,2.32.43,2.32,1.92a1.74,1.74,0,0,1-1.4,1.73v0c1,.16,1.22.81,1.27,2a3.8,3.8,0,0,0,.25,1.48h-.8a3.31,3.31,0,0,1-.19-1.46c0-1.26-.5-1.68-1.73-1.68H1.52v3.14H.78ZM1.52,64H4.65c.81,0,1.54-.3,1.54-1.39s-.79-1.24-1.47-1.24H1.52Z"/><path class="cls-1" d="M12.4,66.75h0a2.28,2.28,0,0,1-2.15,1.18C8.5,67.93,8,67,8,65.79V62.57h.74v3.35c0,1,.63,1.39,1.57,1.39,1.45,0,2.11-.74,2.11-1.92V62.57h.74v5.2H12.4Z"/><path class="cls-1" d="M19.73,66.11a2.65,2.65,0,0,1-2.8,1.82,2.76,2.76,0,1,1,0-5.52,2.66,2.66,0,0,1,2.93,2.94h-5a1.93,1.93,0,0,0,2.09,2c1.24,0,1.8-.41,2.06-1.2Zm-.61-1.32A2,2,0,0,0,17,63a2,2,0,0,0-2.14,1.76Z"/><path class="cls-1" d="M23.75,60.64h3.89c1.21,0,2.32.43,2.32,1.92a1.74,1.74,0,0,1-1.4,1.73v0c1,.16,1.22.81,1.27,2a3.8,3.8,0,0,0,.25,1.48h-.8a3.31,3.31,0,0,1-.19-1.46c0-1.26-.5-1.68-1.73-1.68H24.49v3.14h-.74ZM24.49,64h3.13c.81,0,1.54-.3,1.54-1.39s-.79-1.24-1.47-1.24h-3.2Z"/><path class="cls-1" d="M33.72,62.41a2.77,2.77,0,1,1,0,5.52,2.77,2.77,0,1,1,0-5.52Zm0,4.9a2.14,2.14,0,1,0,0-4.28,2.14,2.14,0,1,0,0,4.28Z"/><path class="cls-1" d="M42.44,62.57h.74v5c0,1.92-1.55,2.4-2.92,2.4-2.37,0-2.6-1.13-2.66-1.69h.68c.11.56.26,1.13,2,1.13,1.36,0,2.15-.64,2.15-1.89v-.93h0a2.43,2.43,0,0,1-2.3,1.18,2.53,2.53,0,0,1-2.76-2.71,2.57,2.57,0,0,1,2.84-2.65,2.27,2.27,0,0,1,2.22,1.17h0Zm-2.2.46a2.06,2.06,0,1,0,.06,4.12A2.06,2.06,0,1,0,40.24,63Z"/><path class="cls-1" d="M49.75,66.11A2.65,2.65,0,0,1,47,67.93a2.76,2.76,0,1,1,0-5.52,2.66,2.66,0,0,1,2.93,2.94h-5a1.93,1.93,0,0,0,2.09,2c1.24,0,1.8-.41,2.06-1.2Zm-.61-1.32a2.18,2.18,0,0,0-4.28,0Z"/><path class="cls-1" d="M50.78,62.57h.74v1.19h0a2,2,0,0,1,2-1.35,2.19,2.19,0,0,1,.44,0v.76a3.91,3.91,0,0,0-.68-.06,1.75,1.75,0,0,0-1.77,2v2.65h-.74Z"/><path class="cls-1" d="M64.43,65.05A3.3,3.3,0,0,1,60.9,68a3.53,3.53,0,0,1-3.8-3.75,3.59,3.59,0,0,1,3.8-3.74c1.56,0,3.25.71,3.47,2.58h-.74c-.22-1.35-1.44-1.9-2.73-1.9a2.76,2.76,0,0,0-3,3.06,2.8,2.8,0,0,0,3,3.07,2.52,2.52,0,0,0,2.79-2.22Z"/><path class="cls-1" d="M68.18,62.41a2.77,2.77,0,1,1-3,2.76A2.69,2.69,0,0,1,68.18,62.41Zm0,4.9A2.14,2.14,0,1,0,66,65.17,2,2,0,0,0,68.18,67.31Z"/><path class="cls-1" d="M76.51,66.75h0a2.28,2.28,0,0,1-2.15,1.18c-1.73,0-2.25-.9-2.25-2.14V62.57h.74v3.35c0,1,.63,1.39,1.57,1.39,1.45,0,2.11-.74,2.11-1.92V62.57h.74v5.2h-.74Z"/><path class="cls-1" d="M78.89,60.94h.74v1.63H81.1v.56H79.63v3.44c0,.45.14.66.74.66a3.56,3.56,0,0,0,.73-.06v.62a6,6,0,0,1-.81.06c-1.15,0-1.4-.45-1.4-1.29V63.13H77.76v-.56h1.13Z"/><path class="cls-1" d="M82.41,60.94h.74v1.63h1.47v.56H83.15v3.44c0,.45.14.66.74.66a3.56,3.56,0,0,0,.73-.06v.62a6,6,0,0,1-.81.06c-1.15,0-1.4-.45-1.4-1.29V63.13H81.28v-.56h1.13Z"/><path class="cls-1" d="M88.2,62.41a2.77,2.77,0,1,1-3,2.76A2.69,2.69,0,0,1,88.2,62.41Zm0,4.9A2.14,2.14,0,1,0,86,65.17,2,2,0,0,0,88.2,67.31Z"/><path class="cls-1" d="M92.09,60.58h.74v7.19h-.74Z"/><path class="cls-1" d="M99.4,66.11a2.65,2.65,0,0,1-2.8,1.82,2.76,2.76,0,1,1,0-5.52,2.66,2.66,0,0,1,2.93,2.94h-5a1.93,1.93,0,0,0,2.09,2c1.24,0,1.8-.41,2.06-1.2Zm-.61-1.32a2.18,2.18,0,0,0-4.28,0Z"/><path class="cls-1" d="M104.85,64.42c0-1-.63-1.39-1.57-1.39-1.45,0-2.11.74-2.11,1.92v2.82h-.74v-5.2h.74v1h0a2.28,2.28,0,0,1,2.15-1.18c1.73,0,2.25.9,2.25,2.14v3.22h-.74Z"/><path class="cls-1" d="M112,65.91a2.5,2.5,0,0,1-2.63,2,2.76,2.76,0,1,1,0-5.52A2.37,2.37,0,0,1,112,64.27h-.74A1.68,1.68,0,0,0,109.39,63a2.14,2.14,0,1,0,0,4.28,1.77,1.77,0,0,0,1.89-1.4Z"/><path class="cls-1" d="M7.74,74.05A3.3,3.3,0,0,1,4.21,77,3.53,3.53,0,0,1,.41,73.2a3.59,3.59,0,0,1,3.8-3.74c1.56,0,3.25.71,3.47,2.58H6.94c-.22-1.35-1.44-1.9-2.73-1.9a2.76,2.76,0,0,0-3,3.06,2.8,2.8,0,0,0,3,3.07A2.52,2.52,0,0,0,7,74.05Z"/><path class="cls-1" d="M11.49,71.41a2.77,2.77,0,1,1,0,5.52,2.77,2.77,0,1,1,0-5.52Zm0,4.9a2.14,2.14,0,1,0,0-4.28,2.14,2.14,0,1,0,0,4.28Z"/><path class="cls-1" d="M23.52,73.47c0-1-.48-1.44-1.55-1.44A1.58,1.58,0,0,0,20.2,73.7v3.07h-.74V73.25C19.46,72.59,19,72,18,72a1.69,1.69,0,0,0-1.84,1.81v2.93H15.4v-5.2h.74v1h0a2.15,2.15,0,0,1,2.06-1.12,1.75,1.75,0,0,1,1.86,1.14,2.29,2.29,0,0,1,2-1.14c1.46,0,2.14.74,2.14,1.81v3.55h-.74Z"/><path class="cls-1" d="M25.4,71.57h.74v1h0a2.06,2.06,0,0,1,2.12-1.2,2.76,2.76,0,1,1,0,5.52,2.38,2.38,0,0,1-2.12-1.2h0v3.06H25.4Zm2.88,4.74a2,2,0,0,0,2.09-2.14A2,2,0,0,0,28.28,72a2.14,2.14,0,1,0,0,4.28Z"/><path class="cls-1" d="M32.05,69.58h.74v1.1h-.74Zm0,2h.74v5.2h-.74Z"/><path class="cls-1" d="M39.36,75.11a2.65,2.65,0,0,1-2.8,1.82,2.76,2.76,0,1,1,0-5.52,2.66,2.66,0,0,1,2.93,2.94h-5a1.93,1.93,0,0,0,2.09,2c1.24,0,1.8-.41,2.06-1.2Zm-.61-1.32a2.18,2.18,0,0,0-4.28,0Zm-1.53-3h-.61l-1.45-1.42h.91Z"/><path class="cls-1" d="M45.2,71.57h.74v5c0,1.92-1.55,2.4-2.92,2.4-2.37,0-2.6-1.13-2.66-1.69H41c.11.56.26,1.13,2,1.13,1.36,0,2.15-.64,2.15-1.89v-.93h0a2.43,2.43,0,0,1-2.3,1.18,2.53,2.53,0,0,1-2.76-2.71A2.57,2.57,0,0,1,43,71.41a2.27,2.27,0,0,1,2.22,1.17h0ZM43,72a2.06,2.06,0,1,0,.06,4.12A2.06,2.06,0,1,0,43,72Z"/><path class="cls-1" d="M51.48,73.42c0-1-.63-1.39-1.57-1.39-1.45,0-2.11.74-2.11,1.92v2.82h-.74v-5.2h.74v1h0A2.28,2.28,0,0,1,50,71.41c1.73,0,2.25.9,2.25,2.14v3.22h-.74Z"/><path class="cls-1" d="M58.81,75.11A2.65,2.65,0,0,1,56,76.93a2.76,2.76,0,1,1,0-5.52,2.66,2.66,0,0,1,2.93,2.94h-5a1.93,1.93,0,0,0,2.09,2c1.24,0,1.8-.41,2.06-1.2Zm-.61-1.32a2.18,2.18,0,0,0-4.28,0Z"/><path class="cls-1" d="M214.16,69.51c4.44,0,7,2.51,7,6.93,0,4.16-2.32,6.94-7,6.94-4.45,0-6.95-2.51-6.95-6.94S209.71,69.51,214.16,69.51Zm0,11.4c2.53,0,3.38-2.09,3.38-4.47S216.69,72,214.16,72s-3.38,2.09-3.38,4.46S211.63,80.91,214.16,80.91Z"/><path class="cls-1" d="M229.66,69.51c4.45,0,7,2.51,7,6.93,0,4.16-2.32,6.94-7,6.94-4.44,0-6.95-2.51-6.95-6.94S225.22,69.51,229.66,69.51Zm0,11.4c2.53,0,3.38-2.09,3.38-4.47S232.19,72,229.66,72s-3.38,2.09-3.38,4.46S227.14,80.91,229.66,80.91Z"/><path class="cls-1" d="M238.56,69.24h3.34v5.1h0a4.85,4.85,0,0,1,4-1.75c1.73,0,4.37.66,4.37,3.66V83H247V77.26c0-1.41-.74-2.09-2.24-2.09a2.63,2.63,0,0,0-2.87,3V83h-3.34Z"/><path class="cls-1" d="M198.22,56.84h-4V54.48c2.92,0,4-.28,4.77-2.41h2.68V65.25h-3.46Z"/><path class="cls-1" d="M204.89,61.34a3.26,3.26,0,0,1,2.68-3.21v0a2.82,2.82,0,0,1-2.17-2.75c0-3,3.76-3.61,6.44-3.61s6.4.57,6.37,3.61a2.69,2.69,0,0,1-2.09,2.75v0a3.27,3.27,0,0,1,2.67,3.21c0,3.25-3.36,4.26-6.95,4.26S204.89,64.59,204.89,61.34Zm3.8-.13c0,1.35,1.27,1.92,3.13,1.92s3.17-.57,3.17-1.92-1.27-1.9-3.17-1.9S208.69,59.88,208.69,61.21Zm5.83-5.55c0-1.1-1.41-1.46-2.7-1.46-1.92,0-2.73.55-2.73,1.46s.79,1.56,2.73,1.56S214.52,56.52,214.52,55.66Z"/><path class="cls-1" d="M220.73,51.46h3.35v5.09h0a4.88,4.88,0,0,1,4-1.74c1.73,0,4.37.66,4.37,3.66v6.78h-3.34V59.48c0-1.41-.74-2.09-2.24-2.09a2.63,2.63,0,0,0-2.87,2.94v4.92h-3.35Z"/></g></g></svg>