<svg xmlns="http://www.w3.org/2000/svg" viewBox="0 0 878.1 396.03">
    <defs>
        <style>.cls-1{fill:#02feb0;}</style>
    </defs>
    <g id="Calque_2" data-name="Calque 2">
        <g id="Calque_2-2" data-name="Calque 2">
            <path class="cls-1"
                  d="M151.34,82.52h13.43a1.19,1.19,0,0,1,1.2,1.37l-1,7.81a1.6,1.6,0,0,1-1.54,1.37H149.84c-9,0-17.59,7.19-18.63,15.68S138,124,146.05,124h13.63a1.19,1.19,0,0,1,1.2,1.37l-.92,7.53a1.6,1.6,0,0,1-1.54,1.37H141c-12.52-1.78-22.32-12.32-20.68-25.68C122.1,93.68,136.76,82.52,151.34,82.52Z"/>
            <path class="cls-1"
                  d="M197,82.52l52.79.07c13.07,1.16,23.67,11.91,22,25.68-1.83,14.86-16.34,26-30.86,26l-52.78-.13c-13.15-1.1-23.74-11.92-22.05-25.68C167.85,93.61,182.43,82.52,197,82.52Zm-5.26,41.16h50.68c9,0,17.51-7.12,18.55-15.62S254.14,93,246.13,93H195.46c-9,0-17.53,7.19-18.56,15.61S183.68,123.68,191.69,123.68Z"/>
            <path class="cls-1"
                  d="M273.48,132.85l6-49a1.63,1.63,0,0,1,1.61-1.37h7.81a1.27,1.27,0,0,1,1.09.55l10.3,18.21a1.23,1.23,0,0,0,1.09.62,1.63,1.63,0,0,0,1.24-.62L317.4,83.07a1.66,1.66,0,0,1,1.23-.55h7.8a1.2,1.2,0,0,1,1.27,1.37l-6,49a1.6,1.6,0,0,1-1.6,1.37h-7.95a1.19,1.19,0,0,1-1.2-1.37l2.84-23.14a1.24,1.24,0,0,0-1.27-1.37,1.61,1.61,0,0,0-1.16.55L300,121.9a1.43,1.43,0,0,1-1.16.55,1.08,1.08,0,0,1-1-.55l-8.13-13a1.23,1.23,0,0,0-1-.55,1.61,1.61,0,0,0-1.54,1.44l-2.84,23.07a1.66,1.66,0,0,1-1.6,1.37h-7.95A1.2,1.2,0,0,1,273.48,132.85Z"/>
            <path class="cls-1"
                  d="M329.84,132.85l6-49a1.59,1.59,0,0,1,1.53-1.37h92.39a23.69,23.69,0,0,1,5.76.48c6.93,1.58,10.55,7.81,9.66,15a17.87,17.87,0,0,1-6.44,11.71c-4.31,3.35-9.36,3.76-12.78,3.76H344.34a1.6,1.6,0,0,0-1.54,1.37l-2.21,18a1.6,1.6,0,0,1-1.54,1.37h-8A1.18,1.18,0,0,1,329.84,132.85Zm15.8-30h81.7c3.35,0,6.63-1,7.11-4.93.55-4.52-2.76-4.86-6.39-4.86H346.84a1.6,1.6,0,0,0-1.54,1.37l-.86,7A1.19,1.19,0,0,0,345.64,102.86Z"/>
            <path class="cls-1"
                  d="M453.86,82.52h8a1.18,1.18,0,0,1,1.2,1.37l-6,49a1.59,1.59,0,0,1-1.54,1.37h-8a1.19,1.19,0,0,1-1.2-1.37l6-49A1.6,1.6,0,0,1,453.86,82.52Z"/>
            <path class="cls-1"
                  d="M470.74,83.89a1.6,1.6,0,0,1,1.54-1.37H572.4a1.19,1.19,0,0,1,1.2,1.37l-1,7.81a1.59,1.59,0,0,1-1.53,1.37H481.74a1.59,1.59,0,0,0-1.54,1.37L479.15,103a1.19,1.19,0,0,0,1.2,1.37h82a1.18,1.18,0,0,1,1.2,1.37l-.95,7.8A1.63,1.63,0,0,1,561,115h-82a1.6,1.6,0,0,0-1.54,1.37l-.73,5.89a1.19,1.19,0,0,0,1.21,1.37h89.36a1.24,1.24,0,0,1,1.2,1.44l-1,7.8a1.59,1.59,0,0,1-1.54,1.37H465.93a1.19,1.19,0,0,1-1.2-1.37Z"/>
            <path class="cls-1"
                  d="M605.82,82.45H685.6a1.26,1.26,0,0,1,1.26,1.44l-1,7.74A1.62,1.62,0,0,1,684.3,93H604.38c-8.83,0-17.45,7.19-18.45,15.34-1,8.35,5.65,15.34,14.69,15.34h69.51a1.59,1.59,0,0,0,1.53-1.37l.74-6a1.24,1.24,0,0,0-1.19-1.44H607.38a1.19,1.19,0,0,1-1.2-1.37l1-7.73a1.6,1.6,0,0,1,1.54-1.37h74.65a1.19,1.19,0,0,1,1.2,1.37l-3.32,27.05a1.61,1.61,0,0,1-1.54,1.37l-80.54.06c-14.11,0-25.9-11.09-24.11-25.68C576.85,93.61,591.16,82.45,605.82,82.45Z"/>
            <path class="cls-1"
                  d="M688.16,132.85l6-48.89a1.59,1.59,0,0,1,1.53-1.37H701a1.36,1.36,0,0,1,1,.48l24,29.1a1,1,0,0,0,.9.48,1.63,1.63,0,0,0,1.61-1.44L731.83,84a1.6,1.6,0,0,1,1.54-1.37h8.08a1.19,1.19,0,0,1,1.2,1.37l-6,48.89a1.6,1.6,0,0,1-1.54,1.37h-5.27a1.21,1.21,0,0,1-1-.41L704.8,104.43a1,1,0,0,0-.9-.47,1.61,1.61,0,0,0-1.61,1.43l-3.38,27.46a1.59,1.59,0,0,1-1.53,1.37h-8A1.19,1.19,0,0,1,688.16,132.85Z"/>
            <path class="cls-1"
                  d="M752.54,82.52h31.71a1.19,1.19,0,0,1,1.2,1.37l-1,7.81A1.59,1.59,0,0,1,783,93.07H762a1.6,1.6,0,0,0-1.54,1.37L759.41,103a1.19,1.19,0,0,0,1.2,1.37h14.93a1.18,1.18,0,0,1,1.2,1.37l-1,7.8a1.63,1.63,0,0,1-1.55,1.44H759.31a1.6,1.6,0,0,0-1.54,1.37l-.72,5.89a1.19,1.19,0,0,0,1.2,1.37h21a1.21,1.21,0,0,1,1.19,1.44l-1,7.8a1.59,1.59,0,0,1-1.54,1.37H746.19a1.19,1.19,0,0,1-1.2-1.37l6-49A1.59,1.59,0,0,1,752.54,82.52Z"/>
            <path class="cls-1"
                  d="M250.52,147.05H223.36l-.44,3.61h2.26c6.06,18.64,3,59.92,1.57,71.34l-3.6,29.26h-.28c-4.81-35.67-11.36-73.34-9.27-90.38a125,125,0,0,1,2.12-13.83H185.6l-.45,3.61h2.26c1.78,8.62,6.71,24.85,1.05,70.94-5.61,45.7-15.71,66.94-18.61,72.15h-2.27l-.44,3.61H194l.45-3.61h-2.27c-5.77-18.64-2.63-60.32-1.23-71.75l3.69-30.06h.28c1,10.63,11.48,97.8,12,105.42h14c.42-8,7.15-65.13,8.26-74.15,5.06-41.29,12.38-57.12,18.66-72.55h2.27l.44-3.61Z"/>
            <path class="cls-1"
                  d="M307.58,162.6l-.29.86-.09-.86h.38m23.71-15.55H288.15l-.45,3.61h2c.79,2.81,6.11,32.07,1.58,68.94-5.07,41.28-15,65.53-19.14,74.15h-2l-.45,3.61h67.47c.29,0,.33-.4.1-.81-2.82-5.81-1-26.25-.11-33.66.59-4.81,2.42-16.24,5.85-23.45.19-.4.24-.8-.33-.8-8.06,0-22.18,13.63-24.59,33.26-.86,7-3.25,21.85-7.49,21.85-9.2,0-2.91-52.31-.23-74.15,4.53-36.87,17-66.13,18.51-68.94h2l.44-3.61Z"/>
            <path class="cls-1"
                  d="M422.53,147.05H395.37l-.44,3.61h3c2.07,13,2.9,45.49.88,61.93l-5.49,44.69c-2.93,23.84-8.57,35.27-16.07,35.27-11.31,0-10.23-13.43-3.66-66.94,1-8,8.25-60.32,16.84-75h2.26l.45-3.61h-42.3l-.44,3.61h2.83c3.48,14.23,4.86,35.27,2.43,55.11L349,259.68c-4.58,37.28,16.77,38.48,24.13,38.48,17.82,0,22.19-28.66,23.69-40.88l5.48-44.69c1.38-11.23,7.33-38.88,17.51-61.93h2.26l.45-3.61Z"/>
            <path class="cls-1"
                  d="M509.66,147.05H468.78l-.44,3.61h2.4c0,4.81.79,12-1,26.86-1.77,14.42-6.23,32.26-11.86,55.11h-.28c-3.81-20.85-2.41-50.71-1.47-58.32,1.38-11.22,4-23.65,4-23.65h2.27l.44-3.61H425.07l-.44,3.61h2.26c.89,6.61,4.81,28.86-.36,70.94-5.61,45.7-14.87,66.94-17.49,72.15h-2l-.44,3.61h26.31l.44-3.61h-2.83c-6.19-19.84-2.92-60.32-1.51-71.75,1.2-9.82,4.23-34.47,5.85-46.49h.28c1.46,23.85,5,108,5.55,121.85h3.68c3.19-12.23,28.21-113.43,30-124.86h.28c.17,9-1.58,32.47-3.58,48.7-5.16,42.09-13.7,65.53-17.11,72.55h-2.4l-.44,3.61h41.58l.44-3.61h-1.55c-1.69-7-6.63-31.26-1.56-72.55,4.72-38.47,13-59.72,17.15-70.54h2l.44-3.61Z"/>
            <path class="cls-1"
                  d="M519.18,280.66c0,.38.07.77.11,1.15h-.49c.13-.38.25-.77.38-1.15m37.58-133.61H513.62l-.44,3.61h2c.79,2.81,6.45,29.26,1.87,66.53-5.07,41.29-16,69.54-19.44,76.56h-2l-.44,3.61h43.14l.44-3.61h-2c-1.68-7-5.71-35.27-.64-76.56,4.58-37.27,16.69-63.32,18.21-66.53h2l.44-3.61Z"/>
            <path class="cls-1"
                  d="M678.55,147.05H633.29l-.44,3.61h2c1.22,6.21,4.71,27.26-.11,66.53-5.21,42.49-13.52,67.54-17.46,76.56h-2l-.44,3.61h41.72l.45-3.61h-3.12c-1.5-6.21-6.41-27.26-2.5-59.12l1.21-9.82h6.08c10.61,0,10.33,13.83,8.9,25.45-1.4,11.42-3.89,17.84-4.65,24.05-1.38,11.22.47,23.85,13.34,23.85,14.85,0,17.32-13.23,17.69-16.23,0-.41.1-.81-.18-.81h-1.13c-.29,0-.34.4-.34.4-.62,2.81-2.52,4.41-3.93,4.41-2.69,0-2.38-4.81-1.6-11.22,4.48-36.47.5-45.49-13.54-52.1l0-.41c14-4.2,22.57-16.83,25.06-37.07,4.18-34.07-11.59-38.08-19.8-38.08ZM653.09,220.8l1.26-10.22c1.72-14,7.5-59.92,15.7-59.92,7.64,0,7,17.84,5,34.07-2.58,21-6.27,36.07-18.43,36.07Z"/>
            <path class="cls-1"
                  d="M178.21,147.05H115.55l-.44,3.61h2A245.23,245.23,0,0,1,118.33,220c-5.07,41.28-15.69,66.73-18.81,73.75h-2l-.45,3.61h65.49c.57,0,.48-.4.39-.81-1.57-6.81-1.68-23.24-.3-34.47.69-5.61.87-12.82,5.28-22.24a.6.6,0,0,0-.52-.84.66.66,0,0,0-.23,0c-16.25,5.61-22.45,28.46-24.54,45.49-.79,6.41-3.64,10-5.47,10-2.69,0-8.34-7-2-58.32l1.32-10.77c6,2.79,8.18,8.75,8.85,16.13,3.14-9.43,8.06-16.33,18.75-17.71-10.38-1.31-13.57-8.36-14.46-17.7-2.41,7.5-6,13.47-12.76,16.23l.39-3.21L138.5,209c3.12-25.45,9-58.32,15.22-58.32,2.83,0,2.71,5.61,2,11-1.13,9.22-4.29,36.08,15.6,43.49a.62.62,0,0,0,.25.05c.39,0,.59-.39.44-1.05-1.76-7.62-.77-21.44,0-27.46a197,197,0,0,1,6.61-28.45c.24-.81.15-1.21-.42-1.21Z"/>
            <path class="cls-1"
                  d="M765.08,147.45H711.75l-.45,3.61h2a244.65,244.65,0,0,1,1.25,69.34c-5.07,41.28-15.69,66.74-18.81,73.75h-2l-.45,3.61h65.49c.57,0,.48-.4.38-.81-1.56-6.81-1.67-23.24-.29-34.46.69-5.62.87-12.83,5.28-22.25a.6.6,0,0,0-.52-.84.62.62,0,0,0-.23,0c-16.25,5.61-22.45,28.46-24.54,45.49-.79,6.41-3.64,10-5.48,10-2.68,0-8.33-7-2-58.32l1.32-10.77c6,2.79,8.18,8.75,8.85,16.13,3.14-9.43,8.06-16.33,18.75-17.71-10.38-1.31-13.57-8.36-14.47-17.7-2.41,7.5-6,13.47-12.75,16.23l.39-3.21,1.26-10.22c3.12-25.45,9-58.32,15.22-58.32,2.83,0,2.71,5.61,2,11-1.13,9.22-4.29,36.08,15.6,43.49a.59.59,0,0,0,.25.05c.39,0,.59-.39.43-1.05-1.75-7.62-.76-21.44,0-27.46.76-6.21-5.74-18.83-2.72-28.45.24-.8.14-1.21-.42-1.21Z"/>
            <path class="cls-1"
                  d="M622.54,147.05H559.88l-.45,3.61h2A244.65,244.65,0,0,1,562.66,220c-5.07,41.28-15.69,66.73-18.81,73.75h-2l-.45,3.61h65.49c.57,0,.48-.4.38-.81-1.56-6.81-1.67-23.24-.29-34.47.69-5.61.87-12.82,5.28-22.24a.6.6,0,0,0-.52-.84.62.62,0,0,0-.23,0c-16.25,5.61-22.45,28.46-24.54,45.49-.79,6.41-3.64,10-5.48,10-2.68,0-8.33-7-2-58.32l1.32-10.77c6,2.79,8.18,8.75,8.85,16.13,3.14-9.43,8.06-16.33,18.75-17.71-10.38-1.31-13.57-8.36-14.47-17.7-2.41,7.5-6,13.47-12.75,16.23l.39-3.21L582.83,209c3.12-25.45,9-58.32,15.22-58.32,2.83,0,2.71,5.61,2,11-1.13,9.22-4.29,36.08,15.6,43.49a.59.59,0,0,0,.25.05c.39,0,.59-.39.43-1.05-1.75-7.62-.76-21.44,0-27.46A197,197,0,0,1,623,148.26c.24-.81.14-1.21-.42-1.21Z"/>
            <path class="cls-1"
                  d="M269.69,297.36H315.4c6.11-.85-40.21,2.86-19.45,9.75C310.93,312.08,269.69,297.36,269.69,297.36Z"/>
            <path class="cls-1"
                  d="M239.06,286.13s-13-15.24-13-36.43-11.18,30.16-11.18,30.16S232.27,283.43,239.06,286.13Z"/>
            <path class="cls-1"
                  d="M119.85,176.34s11.09,36-58.76,10.2c0,0,54.93,41.62,60.51,42.15S119.85,176.34,119.85,176.34Z"/>
            <path class="cls-1"
                  d="M767.56,184.45s5.53-28.32,40.26-5.36c0,0-40.1-29-42.81-28.43S764,183.09,767.56,184.45Z"/>
            <path class="cls-1" d="M557.17,57.8s54.16,16.78,33.56,28.63l39.08-3.13Z"/>
            <path class="cls-1"
                  d="M659,373.06c-71.14,0-152.67-9.79-235.89-28.63l-13.57-3.07H752.27l1.09-8.9H374.56l-.2,0c-89.94-24-172.2-56.21-237.88-93.09C71.91,203.06,28,165,9.59,129.2c-10.31-20-12.32-38.71-6-55.66C18.47,33.82,77.65,8.3,170.27,1.68c92.12-6.57,206.61,6.24,322.39,36.08l11.88,3.06H130.16l-1.09,8.89H536l.22.06C703.94,99.3,834.65,176,869.17,245.15c9.73,19.5,11.52,37.8,5.32,54.38-14,37.51-68.32,62.62-152.9,70.71C701.88,372.13,680.92,373.06,659,373.06ZM437.7,344.47c103.65,22.26,203.87,30.31,283.59,22.68,83.33-8,136.7-32.38,150.29-68.71,5.88-15.74,4.14-33.2-5.2-51.9-34.14-68.4-164-144.42-330.88-193.72H125.55l1.86-15.11H479.77C246.79-20,35.9-3.94,6.53,74.63c-6,16.1-4.06,34,5.82,53.15C30.52,163,74,200.65,138,236.61c65.41,36.73,147.35,68.8,237,92.74H756.88L755,344.47Z"/>
            <path class="cls-1" d="M352.24,10.2s103.19,19.56,54.51,28l88.37.43Z"/>
            <path class="cls-1" d="M431.14,344H584.39s-52,30.44,166.42,22.08C750.81,366,668,393.11,431.14,344Z"/>
            <path class="cls-1"
                  d="M80.72,167.68c3.4-2-17.57-27.75-8.92-64.47,6.39-27.16,24-39.4,19-48.1C84.31,44,46.29,47.75,33.74,66,11.32,98.71,74.93,171.12,80.72,167.68Z"/>
            <path class="cls-1"
                  d="M779.72,218.16l-8.1,66c2,10.22,7,17.61,19.36,19.16l-.54.08.77.11c-15.11,1.59-22,11.44-26.29,24.7l0-.27,0,.06c-.13-1.4-.3-2.76-.51-4.09-1-6.07-3-11.21-6.84-14.85H743c15.2,7.63,20.78,24.05,15.74,55.42.8-5-1-15.85-6-27.06L752,343.2H748.5c4.6,12.38,6.58,29.16,8,52.83,21-68.72,32.5-79.41,99.58-92.6C794.58,290.72,784.1,280.33,779.72,218.16Zm-2.94,25c-1.87,11.6,9.91,54.09,45,61C785.37,303.43,769.26,289.9,776.78,243.11Z"/>
            <path class="cls-1"
                  d="M742.25,331.2h7.27c-4.85-8.53-11.73-16.72-21-22.15H703.61C722.69,314.35,734.6,320.56,742.25,331.2Z"/>
        </g>
    </g>
</svg>