<svg width="150" height="150" viewBox="0 0 150 150" fill="none" xmlns="http://www.w3.org/2000/svg">
<path d="M78.8372 1.24211C97.4606 5.2972 115.176 16.8617 125.32 31.5802L128.273 35.8605H139.174C149.47 35.8605 150 35.9356 150 37.3624C150 38.7892 149.47 38.8643 140.083 38.8643C132.436 38.8643 130.241 39.0896 130.544 39.7654C134.783 49.5277 135.919 52.7568 137.206 58.6141C139.326 68.076 139.326 81.7431 137.282 91.205C135.389 99.3903 132.209 107.275 127.818 114.409L124.563 119.591L112.299 119.816L100.035 119.966V123.721V127.476H108.892L117.825 127.551L114.419 130.554C104.804 139.19 91.1771 146.024 78.1558 148.652C64.5289 151.431 47.4953 149.854 34.0955 144.447C23.8753 140.392 9.567 129.879 4.49477 122.745L2.75354 120.342L6.5388 123.045C12.0653 127.1 20.6957 131.155 27.282 132.882C38.2592 135.736 56.2771 134.459 64.2261 130.179L66.3458 129.052L63.469 128.977H60.668V123.345V117.713H71.948H83.2281L87.089 113.433C91.9342 108.026 97.3849 97.7382 99.3533 90.1537C103.366 74.6843 99.8075 55.31 90.5715 42.4688C89.1331 40.5164 87.9218 38.7141 87.9218 38.4888C87.9218 38.3387 92.0856 38.0383 97.1578 37.8881L106.47 37.6628L96.6279 37.5126L86.7105 37.3624L83.758 34.2836C82.0925 32.5564 78.383 29.5526 75.5819 27.6002C54.3087 12.5813 24.5566 13.7828 4.26765 30.3787C-1.25882 34.8843 -1.33453 34.7341 3.662 28.2009C13.1252 15.9606 27.9633 6.34851 44.6185 1.91795C53.0975 -0.334869 70.0554 -0.710342 78.8372 1.24211ZM48.7823 2.51871C35.1553 5.2972 22.8154 11.4549 13.2766 20.3911L8.0529 25.2723L13.7308 22.3436C23.1939 17.4625 29.856 15.9606 41.7417 15.9606C50.0692 15.9606 53.0217 16.261 57.8669 17.6877C67.7842 20.4662 78.6858 26.7741 84.8179 33.1572L87.4676 35.8605H97.5364H107.605V37.7379V39.6153H99.2776C94.6596 39.6153 90.95 39.7654 90.95 39.9156C90.95 40.1409 92.3127 42.3937 93.9025 45.022C95.568 47.6503 97.9906 52.982 99.3533 56.8869C103.896 70.2537 103.139 87.225 97.5364 99.8408C95.0381 105.398 90.8743 111.706 87.089 115.836L83.9094 119.215H73.0836H62.1821V123.345V127.4L67.2543 127.626L72.4023 127.851L69.2226 129.503C61.9549 133.408 54.6873 135.21 44.7699 135.586C33.8683 135.961 26.7521 134.835 18.046 131.23L12.5952 129.052L15.6234 131.681C23.951 138.89 36.8208 144.897 49.3879 147.451C58.6996 149.328 74.6734 148.652 83.6066 145.949C93.524 143.02 103.744 137.538 111.769 130.93L113.964 129.052L106.47 128.827L98.899 128.602L98.6719 123.571L98.4448 118.464L111.163 118.314L123.882 118.089L126.683 113.583C133.799 102.094 137.433 89.0273 137.433 74.9095C137.433 64.3964 136.07 57.0371 132.436 47.9507C123.125 24.5964 103.139 7.8504 78.0044 2.44362C71.2667 1.01682 55.8985 1.01682 48.7823 2.51871Z" fill="#131B23"/>
</svg>
