<svg width="112" height="171" viewBox="0 0 112 171" fill="none" xmlns="http://www.w3.org/2000/svg">
<path d="M69.8919 0.340271C68.5989 0.736572 66.0863 2.8015 64.6226 4.6787C61.0853 9.22569 58.5238 15.2953 57.2064 22.2618L56.9137 23.7844L55.1085 23.7218L53.2788 23.6593L52.7178 22.2618C52.1079 20.8018 50.3026 17.8191 49.0585 16.2548C45.6676 11.9789 39.9835 9.66371 35.3241 10.6857C32.3723 11.3323 29.884 12.7089 26.7858 15.337C22.4435 19.0706 18.3695 25.2653 13.5637 35.4856C12.0756 38.656 10.2703 42.4104 9.56287 43.8288C7.87961 47.1243 5.29373 53.9031 3.70805 59.2218C2.92741 61.8082 1.53689 68.6495 0.683062 74.0308C0.0243951 78.2024 0.0243951 78.5778 0 88.527C0 98.1842 0.0243951 98.8933 0.536692 101.25C1.19536 104.316 2.12237 107.09 3.65926 110.532C6.26953 116.414 8.51388 119.105 11.9536 120.46C13.5637 121.086 14.9054 121.295 15.3689 120.961C15.5641 120.836 15.93 120.773 16.2227 120.857C16.4911 120.919 17.7108 120.898 18.9062 120.752C28.2251 119.793 34.4702 115.121 41.8376 103.628C42.5206 102.543 43.0329 101.918 42.9597 102.21C42.8865 102.502 42.1547 105.589 41.3496 109.093C40.5202 112.576 39.1541 118.145 38.2759 121.441C37.3976 124.757 36.5438 128.407 36.3487 129.575C35.2753 135.958 36.7878 142.132 40.6422 147.242C42.1059 149.202 43.7404 150.767 44.6918 151.163C45.3017 151.413 45.8139 151.935 46.5458 152.978C47.7412 154.75 50.8637 157.566 53.0593 158.818C54.5718 159.694 56.9869 160.445 57.6456 160.236C58.2066 160.048 57.9383 159.402 56.9381 158.421C56.1331 157.65 55.7183 156.92 54.9621 155.042C50.2051 143.008 49.1561 131.098 51.62 116.81C51.8883 115.267 52.1079 113.974 52.1567 113.953C52.1811 113.932 52.2299 116.727 52.2299 120.189C52.2786 131.39 53.4008 136.562 56.9137 141.944C57.304 142.528 57.67 143.195 57.7431 143.425C57.8163 143.675 58.1579 144.03 58.5238 144.217C59.1093 144.551 59.2068 144.551 59.7679 144.238C60.4998 143.821 60.5242 143.446 59.9875 140.984C59.4508 138.502 59.4996 133.83 60.1095 128.491C60.4022 126.029 60.6462 123.985 60.6949 123.944C60.7437 123.923 60.9145 125.591 61.0853 127.698C61.5244 133.204 62.3782 139.879 63.4272 145.99C63.6223 147.075 64.0615 150.12 64.403 152.769C64.7445 155.397 65.1836 158.109 65.3788 158.776C65.8911 160.466 65.8667 160.737 64.8665 164.157C63.9639 167.307 63.6223 169.56 63.8907 170.477C64.0371 170.999 64.1346 171.04 65.1836 170.978L66.3058 170.915L66.8913 169.455C67.8183 167.098 69.1112 162.739 69.526 160.486C69.7699 159.214 69.9651 156.461 70.0383 153.395C70.1602 148.764 70.209 148.264 70.7945 146.72C71.9655 143.592 73.8439 139.837 77.5763 133.267C82.0894 125.341 82.6749 123.964 82.6749 121.065L82.6993 118.979L84.5777 119.939C85.6267 120.481 87.0416 121.044 87.7247 121.19L88.9932 121.461L88.8469 125.132C88.6029 131.995 87.0904 135.686 81.7235 142.549C78.7961 146.261 77.8447 147.805 77.43 149.494C76.9665 151.455 77.5763 153.749 78.479 153.457C78.6741 153.374 79.0888 152.727 79.406 151.997C80.8453 148.597 81.3576 147.742 83.9678 144.322C88.0174 139.024 89.9934 135.374 91.0424 131.181C91.3839 129.825 91.4815 128.491 91.4815 125.508V121.628L92.4817 121.482C93.9698 121.295 96.6533 120.127 98.3365 118.917C101.654 116.581 104.069 113.014 107.07 106.152C109.022 101.647 109.705 99.3731 110.485 94.68C112.12 84.9812 112.266 76.7215 110.998 68.2115C109.168 56.1974 107.265 50.0027 99.8978 32.1067C95.6287 21.7612 90.4813 13.0635 85.1876 7.28592C83.1872 5.11671 80.1378 2.48863 78.5765 1.61259C75.8687 0.11084 72.4046 -0.410599 69.8919 0.340271ZM74.1122 1.75861C76.259 2.23833 77.308 2.78064 79.4548 4.53268C83.0896 7.51535 87.6271 13.1678 90.7497 18.6534C94.1162 24.5353 96.3849 29.6246 101.63 42.9527C105.362 52.3805 107.046 58.7004 108.729 69.2335C109.217 72.2579 109.29 73.572 109.29 79.9753C109.29 85.5235 109.168 88.1307 108.851 90.8214C107.924 98.4344 107.412 100.499 105.118 105.776C103.338 109.948 101.459 113.202 99.849 115.016C98.3121 116.706 95.7263 118.479 93.7991 119.125C91.9694 119.73 89.2372 119.73 87.6515 119.125C84.5533 117.936 80.4793 114.891 78.5521 112.305C77.43 110.803 75.2344 106.882 74.6977 105.422C73.1852 101.188 72.7217 99.7693 71.7459 96.453C70.5262 92.1563 70.3066 91.5931 69.7455 91.4054C68.7697 91.0925 68.7697 92.3857 69.7943 96.599C70.1358 97.9339 70.7701 100.103 71.2092 101.396C71.6727 102.689 72.3314 104.608 72.6729 105.651C73.9415 109.593 76.0638 113.035 78.9912 115.976C79.9183 116.914 80.6989 117.895 80.8453 118.374C81.26 119.668 81.1624 121.92 80.6013 123.714C80.089 125.341 75.6003 133.35 75.8687 132.161C75.9419 131.849 76.1126 130.576 76.259 129.346C76.8689 124.027 75.6979 118.792 71.8191 109.698C70.5506 106.673 69.526 102.835 68.6721 97.7044C68.4038 95.9732 67.7939 92.6986 67.3304 90.4042C66.8669 88.1098 66.3302 84.8769 66.1106 83.2083C65.6715 79.9753 65.208 78.1815 64.6957 77.827C63.4272 76.9301 63.1832 80.601 64.1346 85.8781C65.1105 91.3011 66.257 100.02 66.2326 102.085C66.2326 104.129 65.6715 113.661 65.2324 119.501C64.9153 123.693 65.0861 132.203 65.6227 138.586C66.0131 143.133 66.0619 145.052 65.7203 142.862C65.3056 140.108 64.525 132.996 64.0371 127.427C63.2564 118.583 60.7437 100.896 60.1582 99.9154C60.0363 99.7276 59.8167 98.0382 59.6703 96.1401C59.4996 94.242 59.2312 91.5722 59.0361 90.1956C58.8409 88.819 58.4994 86.2535 58.3042 84.4806C58.0847 82.7077 57.8163 80.8513 57.67 80.3299C57.1577 78.3901 56.2306 77.6184 55.7427 78.7447C55.2304 79.8919 55.6696 85.148 56.5966 89.0693C57.0357 90.9257 58.1579 111.158 58.1822 117.206C58.1822 121.587 57.8895 126.05 57.3528 130.034C57.1577 131.411 56.9137 133.184 56.8161 133.997L56.6454 135.457L56.1819 133.893C55.1085 130.159 54.9865 128.011 54.7669 111.679C54.5718 95.9732 54.4986 94.9929 53.5472 89.549C52.7421 85.0646 51.9859 81.7482 51.5468 80.8513C51.0345 79.8502 50.5466 79.5999 50.2782 80.2047C50.0587 80.7053 50.1075 82.5408 50.3758 84.0217C50.5222 84.7517 50.5954 85.3775 50.5466 85.4192C50.4978 85.4609 49.9367 85.3149 49.3268 85.0855C47.7412 84.4806 44.9357 84.3554 42.0083 84.7309C40.3251 84.9603 39.4468 85.1689 39.0809 85.4609C38.7882 85.6903 37.6172 86.2326 36.4706 86.6498C34.4214 87.4424 34.3727 87.4424 30.5914 87.5467C25.9808 87.651 24.639 87.4007 23.1997 86.1909C20.8578 84.2094 19.76 80.4759 20.3455 76.6381C20.7846 73.9057 21.614 71.9242 24.517 66.6055C28.5178 59.347 29.5668 56.4269 31.2257 48.0629C32.3235 42.6399 32.4211 42.2436 33.2993 39.9075C34.8606 35.8819 36.7878 33.2747 40.4714 30.1252C42.9353 28.0186 43.4232 27.7057 45.9359 26.6211C47.4484 25.9745 48.8633 25.4322 49.0829 25.4322C49.5708 25.4322 50.3758 24.8482 50.3758 24.4936C50.3758 24.0973 48.3754 20.2386 47.3264 18.6326C46.1555 16.8179 43.3744 14.4401 41.5692 13.6684C37.7636 12.0832 33.9092 12.8341 30.4451 15.7959C24.5902 20.8018 16.9058 33.6084 11.4413 47.4372C4.78143 64.2485 2.12237 82.0402 3.92761 97.7044C5.31813 109.76 8.36751 115.788 13.954 117.644C15.6372 118.187 17.0034 118.228 20.1747 117.79C22.7118 117.436 24.5414 116.727 27.9568 114.787C30.567 113.306 34.885 109.197 37.1781 105.985C37.6172 105.401 38.0319 104.9 38.1051 104.9C38.3491 104.9 35.3485 108.947 33.8116 110.636C29.2497 115.726 24.8586 118.124 18.7598 118.875C17.0766 119.084 16.5886 119.063 14.8322 118.708C12.1975 118.187 10.8314 117.457 9.48968 115.913C7.56247 113.681 5.56208 109.427 4.00079 104.316C2.73225 100.103 2.53709 98.1007 2.39072 88.4644C2.24435 78.411 2.4639 75.3032 3.92761 67.6692C4.97659 62.1628 5.31813 61.0156 7.68445 54.2159C10.0752 47.3537 10.0752 47.3329 12.6854 42.0141C13.8564 39.5946 15.4665 36.174 16.2471 34.401C18.6134 29.124 22.8094 22.2618 25.688 18.9871C27.5176 16.9014 30.4694 14.4401 32.2015 13.5641C34.2507 12.5004 35.8364 12.1041 37.9587 12.0832C39.5932 12.0832 39.9835 12.1666 41.74 12.8967C42.789 13.3347 44.1795 14.0856 44.8137 14.5653C46.8385 16.0879 49.9855 20.5515 51.1321 23.4924C51.5712 24.6396 51.742 24.8482 52.5226 25.1402C53.0837 25.3488 54.2059 25.4948 55.4256 25.5156C58.2554 25.5573 58.231 25.5782 59.3776 20.8226C61.8415 10.7274 66.6717 2.78064 71.0629 1.65431C72.063 1.40402 72.5753 1.42488 74.1122 1.75861ZM40.3738 14.9616C42.9597 16.0253 45.2041 18.3197 46.6434 21.3649C47.4972 23.1378 47.6192 23.7636 47.1557 23.7636C46.9849 23.7636 45.8383 24.1807 44.6186 24.7022C38.6418 27.1842 33.6652 32.3778 31.0305 38.8855C30.0791 41.2633 29.7132 42.6399 28.6642 47.75C27.0541 55.5091 25.932 58.5335 22.0531 65.6251C19.1013 71.0065 18.3207 72.8211 17.8084 75.5952C17.1497 79.0158 17.4669 81.9151 18.7598 84.6683C19.638 86.4829 20.7602 87.7553 22.3459 88.673C25.8832 90.7588 30.689 90.5294 38.3735 87.9847C39.7396 87.505 40.9593 87.1712 41.0813 87.213C41.496 87.3381 43.0573 89.5073 43.0573 89.9662C43.0573 90.7588 41.8619 94.1795 40.7642 96.4947C36.3243 105.964 29.3717 113.202 22.2483 115.809C20.7114 116.372 20.1991 116.456 18.1743 116.476C16.1739 116.476 15.6616 116.393 14.5151 115.934C13.7832 115.642 12.8074 115.121 12.3439 114.787C8.07477 111.7 5.24494 100.812 5.24494 87.4841C5.24494 68.7121 10.8558 49.1058 21.4677 30.7509C27.1273 20.9895 31.6648 15.6916 35.2509 14.6904C36.7634 14.2733 39.0077 14.3984 40.3738 14.9616ZM48.2291 86.7958C48.0583 86.9418 47.9363 87.6301 47.9363 88.4644C47.9363 89.2362 47.8387 89.8828 47.7168 89.8828C47.3752 89.8828 45.8627 92.1563 44.1307 95.3058C42.4718 98.3302 39.7884 102.731 39.3493 103.127C39.2273 103.232 39.6664 102.356 40.3251 101.146C43.7648 94.8886 45.2285 89.6533 44.1551 87.4424C43.9599 87.0461 43.7892 86.6707 43.7892 86.6289C43.7892 86.5872 44.8625 86.5455 46.1555 86.5455C47.9851 86.5455 48.4486 86.6081 48.2291 86.7958ZM51.0833 88.5687C51.254 89.6742 51.5468 91.2177 51.7176 91.9685C52.1079 93.6163 52.1567 97.1204 51.8639 102.961C51.5956 108.404 51.5224 108.968 50.3758 116.476C49.0341 124.986 48.7658 129.054 49.1073 134.581C49.6684 142.945 51.1809 150.329 53.3032 155.126L53.8155 156.252L53.0105 155.773C52.5714 155.501 51.4248 154.625 50.4734 153.812C48.9365 152.498 48.6682 152.164 48.0095 150.579C47.5948 149.599 46.9605 147.763 46.619 146.512C46.2531 145.239 45.7652 143.446 45.4968 142.486C45.1065 141.068 45.0089 140.025 45.0089 136.708C45.0089 131.786 45.3748 129.179 47.5704 118.562C50.449 104.671 50.4734 104.4 50.4734 97.4958C50.4978 91.2177 50.1807 87.9013 49.4976 87.0044C49.1561 86.5664 49.1805 86.5455 49.9611 86.5455H50.7905L51.0833 88.5687ZM48.0827 97.913C47.9363 103.273 47.668 105.088 45.3748 116.685C42.8134 129.721 42.7158 130.305 42.7158 135.77C42.7158 140.108 42.9353 142.528 43.6916 146.199L43.8379 146.929L43.3256 146.407C42.545 145.594 40.8861 142.778 40.2275 141.13C39.3493 138.919 38.8857 136.396 38.8857 133.58C38.8857 130.535 39.2029 128.762 41.0813 121.482C43.7892 111.053 45.9359 100.979 46.2287 97.4958C46.375 95.8064 46.5946 94.7635 47.1069 93.5329L47.8143 91.8643L48.0095 92.6986C48.1315 93.1574 48.1559 95.4935 48.0827 97.913ZM38.7882 104.066C38.5686 104.4 38.3491 104.692 38.2759 104.692C38.2271 104.692 38.3247 104.4 38.5442 104.066C38.7638 103.711 38.9833 103.44 39.0565 103.44C39.1053 103.44 39.0077 103.711 38.7882 104.066ZM70.2578 114.182C70.8921 115.788 71.7947 117.749 72.2582 118.541C73.5511 120.731 73.8927 122.379 73.8927 126.488C73.8927 130.451 73.6975 131.577 71.9899 137.334C71.4044 139.274 70.8433 141.235 70.7701 141.673C70.5749 142.57 69.6967 144.363 69.6723 143.904C69.6479 143.738 69.4772 141.756 69.282 139.524C68.5258 130.91 68.3794 125.383 68.6965 118.103C68.8673 114.286 69.0137 111.179 69.0625 111.22C69.0868 111.241 69.6235 112.576 70.2578 114.182Z" fill="#131B23"/>
<path d="M73.6244 3.51067C70.6482 4.1364 66.7938 7.91166 64.6471 12.2918C63.3297 14.9407 62.1832 18.9454 61.7197 22.5538C61.6221 23.2213 61.4513 23.7636 61.3293 23.7636C60.9634 23.7636 61.0854 24.1807 61.5977 24.7647C61.988 25.1819 62.3295 25.3071 63.1346 25.3279C64.5739 25.3488 68.8674 27.1634 71.1361 28.7277C74.9906 31.335 78.5522 35.2562 80.7234 39.2192C82.0407 41.6387 83.1629 44.6214 84.651 49.6064C86.0415 54.2994 86.9929 56.7606 88.1883 58.8047C89.4081 60.8487 90.5302 62.1002 94.1651 65.2706C95.7996 66.7098 97.7512 68.5452 98.5318 69.3796C101.41 72.4665 103.313 75.8038 103.313 77.7644C103.313 79.8293 101.752 82.1445 99.5076 83.3543C98.8489 83.7089 97.1657 84.418 95.7752 84.8978L93.2625 85.7946L90.5058 85.2106C88.9689 84.8769 87.3833 84.6683 86.9685 84.71C86.5538 84.7726 86.1635 84.7309 86.0903 84.6266C85.8464 84.272 85.0901 84.4806 84.8218 84.9603C84.3339 85.8989 85.3585 92.928 86.9929 99.8945C88.4323 106.027 88.8714 108.488 89.0665 111.867L89.2373 114.954L88.6518 114.808C86.0659 114.14 83.0897 110.136 79.4549 102.397C78.5035 100.395 77.0154 97.2873 76.1127 95.5144C74.4539 92.2188 73.6244 89.9245 72.9414 86.7541C72.4291 84.3554 71.5997 77.973 71.5997 76.4712V75.2406L72.4047 75.3866C72.8194 75.47 74.0148 75.7412 75.015 75.9915L76.8446 76.4295L77.0154 80.2047C77.1373 83.3543 77.7716 88.4227 78.0643 88.8607C78.1131 88.9233 78.4791 90.5085 78.8938 92.4066C80.6014 100.249 83.8216 109.802 84.9925 110.407C85.8952 110.887 85.7732 108.3 84.6754 104.066C84.3339 102.752 83.2361 98.6222 82.2115 94.8886C81.1625 91.1551 80.2355 87.7136 80.1379 87.2547C79.8452 86.0449 79.4061 80.9765 79.4061 78.7447C79.4061 76.9509 79.4061 76.9092 79.9672 77.0135C80.2599 77.0761 82.6262 77.4724 85.2365 77.8895C90.5302 78.7238 92.2623 79.1619 94.4578 80.2047C95.8971 80.8931 96.7266 81.0808 96.7266 80.7471C96.7266 80.309 95.1409 79.0367 93.8724 78.4736C91.9695 77.5975 90.6522 77.3055 85.1633 76.4295C80.4551 75.6786 72.1363 73.9683 71.3313 73.5928C70.6726 73.3008 67.3061 73.0922 63.7932 73.1131C61.5001 73.134 59.9632 73.28 57.5725 73.718C51.2298 74.8443 42.0328 77.3264 34.1044 80.0379C32.0796 80.7471 29.8841 81.4354 29.2254 81.5605C27.8593 81.8525 27.4202 82.0819 27.5909 82.4782C27.9325 83.25 29.3718 82.958 35.1778 80.9973C45.2286 77.5975 55.4013 75.0737 61.5977 74.4271C63.7444 74.2186 66.0864 74.2603 68.4039 74.5731L69.3553 74.6983L69.5017 76.7215C70.136 85.6903 71.1361 89.4656 75.698 100.103C80.0647 110.303 83.2361 114.891 87.0905 116.643C87.8224 116.977 88.5054 117.102 89.896 117.102C91.5304 117.102 91.8964 117.019 93.2625 116.393C98.3123 114.057 103.972 105.38 106.338 96.307C107.558 91.6348 107.802 89.7368 107.802 84.0426C107.826 73.864 105.924 63.3308 101.972 51.8173C100.337 47.0826 94.2627 31.7521 92.7502 28.5609C91.1645 25.2028 85.7976 15.0867 83.7484 11.5618C79.9672 5.11671 77.0642 2.8015 73.6244 3.51067ZM76.747 5.36701C78.9426 6.57676 81.0893 9.87229 86.7246 20.7392C90.8962 28.8112 92.2379 31.8564 95.9459 41.597C100.898 54.5705 102.24 58.8881 103.679 66.1883C104.826 71.9868 104.826 71.9659 103.289 70.047C101.532 67.8778 100.313 66.668 95.9947 62.8719C90.8474 58.3458 90.3107 57.4489 87.7004 49.1266C85.944 43.5159 84.8706 40.8044 83.3825 38.2806C78.8694 30.5632 71.6972 24.9942 64.7202 23.7636C63.037 23.4716 63.0614 23.555 63.7932 20.0926C64.8422 15.0867 66.8914 10.79 69.5993 7.8908C72.4291 4.82471 74.4295 4.11554 76.747 5.36701ZM105.533 86.4204C105.216 90.8005 104.777 93.4912 103.801 96.9118C102.264 102.397 99.2637 107.779 95.58 111.825C94.5798 112.91 92.5062 114.495 92.0915 114.495C91.9939 114.495 91.8476 113.202 91.7744 111.617C91.6036 108.342 91.2133 106.402 89.1641 98.5387C87.7736 93.1157 86.5294 87.2755 86.749 87.067C86.8222 87.0252 87.676 87.1712 88.6762 87.3798C91.4085 87.9847 94.7994 88.1307 96.6534 87.7344C99.6784 87.067 103.021 85.2315 104.533 83.4377C104.997 82.8745 105.484 82.4991 105.582 82.5825C105.704 82.666 105.68 84.3972 105.533 86.4204Z" fill="#131B23"/>
<path d="M41.4472 34.0673C41.374 34.2133 41.4472 34.9433 41.5692 35.6733C42.6913 41.5135 39.6663 51.4627 33.1041 63.5185C31.0305 67.2938 30.323 69.2127 30.4206 70.6102C30.5426 72.2788 31.0305 71.8617 32.0551 69.2336C32.5918 67.9195 33.8847 65.2289 34.9581 63.2891C39.1053 55.7386 42.2278 47.5623 43.0817 42.1601C43.4476 39.7823 43.2524 36.0279 42.7157 34.8807C42.2766 33.9838 41.6667 33.5876 41.4472 34.0673Z" fill="#131B23"/>
<path d="M52.181 34.86C52.059 35.006 51.9127 37.8009 51.8151 41.0756C51.6931 45.1429 51.4248 48.7096 50.9857 52.3388C50.2538 58.2624 50.2538 62.2879 50.9857 65.7921C51.5223 68.4201 52.6201 71.0482 53.3032 71.4236C53.8155 71.6948 53.7423 70.9439 53.0592 68.2324C52.2054 64.8117 51.7419 60.4525 51.9615 57.9704C52.059 56.9901 52.4006 53.9031 52.7421 51.0873C53.23 47.0201 53.352 44.9552 53.352 40.9713C53.3276 38.2181 53.23 35.6943 53.108 35.3606C52.8885 34.6723 52.4738 34.4429 52.181 34.86Z" fill="#131B23"/>
<path d="M69.7211 35.7985C69.8919 36.9874 71.9899 42.9944 73.2096 45.8311C74.4538 48.7303 76.9909 53.1522 80.6501 58.8255C82.3822 61.537 84.3094 64.7283 84.9193 65.9172C86.4074 68.8581 87.0416 69.8801 87.3344 69.7967C87.4564 69.755 87.5295 69.2961 87.4807 68.7955C87.31 66.7932 85.2364 62.8511 80.7477 55.8846C76.6249 49.4812 75.8443 47.9794 72.8925 40.5541C70.8189 35.4022 70.5262 34.8182 69.9651 34.8182C69.6479 34.8182 69.5992 34.985 69.7211 35.7985Z" fill="#131B23"/>
<path d="M63.232 35.3814C62.6709 35.8403 63.6711 41.5553 65.2812 47.1035C66.3545 50.8579 68.6965 57.4489 69.965 60.369C70.9896 62.6634 72.746 65.6877 73.0632 65.6877C73.5999 65.6877 73.4535 65.1246 70.9408 58.4918C67.5987 49.6481 66.3301 45.4974 64.9884 39.1984C64.5737 37.196 64.1834 35.4857 64.1102 35.3814C63.9882 35.1937 63.4515 35.1937 63.232 35.3814Z" fill="#131B23"/>
</svg>
